<?xml version="1.0" standalone="no"?>
<!DOCTYPE svg PUBLIC "-//W3C//DTD SVG 20010904//EN"
 "http://www.w3.org/TR/2001/REC-SVG-20010904/DTD/svg10.dtd">
<svg version="1.0" xmlns="http://www.w3.org/2000/svg"
 width="700.000000pt" height="394.000000pt" viewBox="0 0 700.000000 394.000000"
 preserveAspectRatio="xMidYMid meet">

<g transform="translate(0.000000,394.000000) scale(0.100000,-0.100000)"
fill="#000000" stroke="none">
<path d="M2262 2627 l3 -663 28 -43 c47 -71 90 -84 295 -89 l172 -4 0 65 0 64
-70 5 c-83 6 -115 25 -129 75 -7 25 -11 254 -11 646 l0 607 -145 0 -145 0 2
-663z"/>
<path d="M5724 3246 c-9 -23 4 -36 37 -36 l29 0 0 -80 c0 -73 2 -80 20 -80 18
0 20 7 20 79 l0 80 33 3 c24 2 32 8 32 23 0 18 -8 20 -83 23 -66 2 -83 0 -88
-12z"/>
<path d="M5916 3183 c-10 -122 -9 -133 14 -133 14 0 20 7 20 23 0 42 17 52 24
13 9 -49 38 -49 59 2 l15 37 1 -37 c1 -33 4 -38 26 -38 24 0 24 0 19 83 -8
118 -11 129 -36 125 -18 -2 -25 -15 -39 -68 l-16 -65 -11 40 c-6 22 -14 52
-18 68 -4 19 -12 27 -29 27 -20 0 -23 -6 -29 -77z"/>
<path d="M3583 2759 c-23 -4 -54 -16 -69 -25 -52 -35 -54 -49 -54 -494 l0
-410 70 0 70 0 1 278 c1 152 0 294 -1 315 -1 20 2 37 7 37 4 0 64 -142 133
-315 69 -173 127 -315 130 -315 3 0 59 139 124 308 66 169 125 318 132 332 11
21 13 -30 14 -307 l0 -333 145 0 145 0 0 411 c0 459 0 459 -68 496 -46 26
-124 36 -171 23 -73 -19 -122 -98 -207 -328 -21 -56 -41 -99 -44 -95 -4 5 -28
62 -54 128 -58 148 -113 253 -146 276 -30 20 -99 28 -157 18z"/>
<path d="M5020 2759 c-135 -14 -238 -74 -308 -179 -61 -90 -77 -147 -77 -270
0 -83 5 -119 23 -172 47 -137 150 -255 258 -297 198 -76 422 -28 536 114 159
198 130 525 -62 699 -89 81 -227 119 -370 105z m120 -125 c58 -35 87 -121 96
-289 12 -207 -25 -379 -89 -412 -38 -19 -92 -11 -124 19 -79 74 -101 495 -32
630 32 62 94 84 149 52z"/>
<path d="M1524 2731 c-53 -9 -89 -33 -111 -74 -16 -29 -18 -66 -18 -379 0
-337 1 -347 21 -375 12 -15 36 -37 55 -48 31 -18 55 -20 292 -23 l257 -3 0 64
0 65 -151 4 c-186 4 -179 -2 -179 150 0 59 3 107 8 107 4 -1 67 -1 140 0 l132
1 0 65 0 65 -140 0 -140 0 0 103 c0 146 -5 141 169 145 l141 4 0 68 0 69 -217
-1 c-120 0 -237 -3 -259 -7z"/>
<path d="M2900 2284 l0 -454 145 0 145 0 0 454 0 455 -145 0 -145 0 0 -455z"/>
</g>
</svg>
